<?xml version="1.0" encoding="UTF-8"?>
<svg xmlns="http://www.w3.org/2000/svg" viewBox="0 0 960 360" role="img" aria-labelledby="title description">
  <title id="title">GitHub Star History for vanga999/ronin</title>
  <desc id="description">41 daily data points; latest total is 1 star.</desc>
  <style>
    .background { fill: #fbfaf5; }
    .title { fill: #16261f; font: 600 21px -apple-system, BlinkMacSystemFont, "Segoe UI", sans-serif; }
    .subtitle { fill: #65736c; font: 12px -apple-system, BlinkMacSystemFont, "Segoe UI", sans-serif; }
    .axis { fill: #65736c; font: 11px ui-monospace, SFMono-Regular, Menlo, monospace; }
    .grid { stroke: #dce2dc; stroke-width: 1; stroke-dasharray: 4 5; }
    .line { fill: none; stroke: #f35d34; stroke-width: 3; stroke-linecap: round; stroke-linejoin: round; }
    .point { fill: #f35d34; stroke: #fbfaf5; stroke-width: 2; }
    .date { fill: #65736c; font: 11px ui-monospace, SFMono-Regular, Menlo, monospace; }
    .latest { fill: #176f51; font: 700 18px ui-monospace, SFMono-Regular, Menlo, monospace; }
  </style>
  <rect width="960" height="360" rx="8" class="background" />
  <text x="74" y="34" class="title">GitHub Star History</text>
  <text x="74" y="53" class="subtitle">vanga999/ronin · updated daily</text>
  <text x="928" y="40" text-anchor="end" class="latest">1 star</text>
  <line x1="74" y1="74.0" x2="928" y2="74.0" class="grid" />
    <text x="60" y="78.0" text-anchor="end" class="axis">2</text>
    <line x1="74" y1="185.0" x2="928" y2="185.0" class="grid" />
    <text x="60" y="189.0" text-anchor="end" class="axis">1</text>
    <line x1="74" y1="296.0" x2="928" y2="296.0" class="grid" />
    <text x="60" y="300.0" text-anchor="end" class="axis">0</text>
  <polyline points="74.0,185.0 95.3,185.0 116.7,185.0 138.1,185.0 159.4,185.0 180.8,185.0 202.1,185.0 223.4,185.0 244.8,185.0 266.1,185.0 287.5,185.0 308.9,185.0 330.2,185.0 351.6,185.0 372.9,185.0 394.3,185.0 415.6,185.0 436.9,185.0 458.3,185.0 479.6,185.0 501.0,185.0 522.4,185.0 543.7,185.0 565.0,185.0 586.4,185.0 607.8,185.0 629.1,185.0 650.5,185.0 671.8,185.0 693.1,185.0 714.5,185.0 735.9,185.0 757.2,185.0 778.5,185.0 799.9,185.0 821.3,185.0 842.6,185.0 864.0,185.0 885.3,185.0 906.6,185.0 928.0,185.0" class="line" />
  <circle cx="74.0" cy="185.0" r="2.5" class="point">
      <title>2026-08-16 · 1 star</title>
    </circle>
    <circle cx="95.3" cy="185.0" r="2.5" class="point">
      <title>2026-08-17 · 1 star</title>
    </circle>
    <circle cx="116.7" cy="185.0" r="2.5" class="point">
      <title>2026-08-18 · 1 star</title>
    </circle>
    <circle cx="138.1" cy="185.0" r="2.5" class="point">
      <title>2026-08-19 · 1 star</title>
    </circle>
    <circle cx="159.4" cy="185.0" r="2.5" class="point">
      <title>2026-08-20 · 1 star</title>
    </circle>
    <circle cx="180.8" cy="185.0" r="2.5" class="point">
      <title>2026-08-21 · 1 star</title>
    </circle>
    <circle cx="202.1" cy="185.0" r="2.5" class="point">
      <title>2026-08-22 · 1 star</title>
    </circle>
    <circle cx="223.4" cy="185.0" r="2.5" class="point">
      <title>2026-08-23 · 1 star</title>
    </circle>
    <circle cx="244.8" cy="185.0" r="2.5" class="point">
      <title>2026-08-24 · 1 star</title>
    </circle>
    <circle cx="266.1" cy="185.0" r="2.5" class="point">
      <title>2026-08-25 · 1 star</title>
    </circle>
    <circle cx="287.5" cy="185.0" r="2.5" class="point">
      <title>2026-08-26 · 1 star</title>
    </circle>
    <circle cx="308.9" cy="185.0" r="2.5" class="point">
      <title>2026-08-27 · 1 star</title>
    </circle>
    <circle cx="330.2" cy="185.0" r="2.5" class="point">
      <title>2026-08-28 · 1 star</title>
    </circle>
    <circle cx="351.6" cy="185.0" r="2.5" class="point">
      <title>2026-08-29 · 1 star</title>
    </circle>
    <circle cx="372.9" cy="185.0" r="2.5" class="point">
      <title>2026-08-30 · 1 star</title>
    </circle>
    <circle cx="394.3" cy="185.0" r="2.5" class="point">
      <title>2026-08-31 · 1 star</title>
    </circle>
    <circle cx="415.6" cy="185.0" r="2.5" class="point">
      <title>2026-09-01 · 1 star</title>
    </circle>
    <circle cx="436.9" cy="185.0" r="2.5" class="point">
      <title>2026-09-02 · 1 star</title>
    </circle>
    <circle cx="458.3" cy="185.0" r="2.5" class="point">
      <title>2026-09-03 · 1 star</title>
    </circle>
    <circle cx="479.6" cy="185.0" r="2.5" class="point">
      <title>2026-09-04 · 1 star</title>
    </circle>
    <circle cx="501.0" cy="185.0" r="2.5" class="point">
      <title>2026-09-05 · 1 star</title>
    </circle>
    <circle cx="522.4" cy="185.0" r="2.5" class="point">
      <title>2026-09-06 · 1 star</title>
    </circle>
    <circle cx="543.7" cy="185.0" r="2.5" class="point">
      <title>2026-09-07 · 1 star</title>
    </circle>
    <circle cx="565.0" cy="185.0" r="2.5" class="point">
      <title>2026-09-08 · 1 star</title>
    </circle>
    <circle cx="586.4" cy="185.0" r="2.5" class="point">
      <title>2026-09-09 · 1 star</title>
    </circle>
    <circle cx="607.8" cy="185.0" r="2.5" class="point">
      <title>2026-09-10 · 1 star</title>
    </circle>
    <circle cx="629.1" cy="185.0" r="2.5" class="point">
      <title>2026-09-11 · 1 star</title>
    </circle>
    <circle cx="650.5" cy="185.0" r="2.5" class="point">
      <title>2026-09-12 · 1 star</title>
    </circle>
    <circle cx="671.8" cy="185.0" r="2.5" class="point">
      <title>2026-09-13 · 1 star</title>
    </circle>
    <circle cx="693.1" cy="185.0" r="2.5" class="point">
      <title>2026-09-14 · 1 star</title>
    </circle>
    <circle cx="714.5" cy="185.0" r="2.5" class="point">
      <title>2026-09-15 · 1 star</title>
    </circle>
    <circle cx="735.9" cy="185.0" r="2.5" class="point">
      <title>2026-09-16 · 1 star</title>
    </circle>
    <circle cx="757.2" cy="185.0" r="2.5" class="point">
      <title>2026-09-17 · 1 star</title>
    </circle>
    <circle cx="778.5" cy="185.0" r="2.5" class="point">
      <title>2026-09-18 · 1 star</title>
    </circle>
    <circle cx="799.9" cy="185.0" r="2.5" class="point">
      <title>2026-09-19 · 1 star</title>
    </circle>
    <circle cx="821.3" cy="185.0" r="2.5" class="point">
      <title>2026-09-20 · 1 star</title>
    </circle>
    <circle cx="842.6" cy="185.0" r="2.5" class="point">
      <title>2026-09-21 · 1 star</title>
    </circle>
    <circle cx="864.0" cy="185.0" r="2.5" class="point">
      <title>2026-09-22 · 1 star</title>
    </circle>
    <circle cx="885.3" cy="185.0" r="2.5" class="point">
      <title>2026-09-23 · 1 star</title>
    </circle>
    <circle cx="906.6" cy="185.0" r="2.5" class="point">
      <title>2026-09-24 · 1 star</title>
    </circle>
    <circle cx="928.0" cy="185.0" r="2.5" class="point">
      <title>2026-09-25 · 1 star</title>
    </circle>
  <text x="74" y="338" class="date">2026-08-16</text>
  <text x="928" y="338" text-anchor="end" class="date">2026-09-25</text>
</svg>
