<?xml version="1.0" encoding="UTF-8"?>
<svg xmlns="http://www.w3.org/2000/svg" viewBox="0 0 960 360" role="img" aria-labelledby="title description">
  <title id="title">GitHub Star History for vanga999/ronin</title>
  <desc id="description">32 daily data points; latest total is 1 star.</desc>
  <style>
    .background { fill: #fbfaf5; }
    .title { fill: #16261f; font: 600 21px -apple-system, BlinkMacSystemFont, "Segoe UI", sans-serif; }
    .subtitle { fill: #65736c; font: 12px -apple-system, BlinkMacSystemFont, "Segoe UI", sans-serif; }
    .axis { fill: #65736c; font: 11px ui-monospace, SFMono-Regular, Menlo, monospace; }
    .grid { stroke: #dce2dc; stroke-width: 1; stroke-dasharray: 4 5; }
    .line { fill: none; stroke: #f35d34; stroke-width: 3; stroke-linecap: round; stroke-linejoin: round; }
    .point { fill: #f35d34; stroke: #fbfaf5; stroke-width: 2; }
    .date { fill: #65736c; font: 11px ui-monospace, SFMono-Regular, Menlo, monospace; }
    .latest { fill: #176f51; font: 700 18px ui-monospace, SFMono-Regular, Menlo, monospace; }
  </style>
  <rect width="960" height="360" rx="8" class="background" />
  <text x="74" y="34" class="title">GitHub Star History</text>
  <text x="74" y="53" class="subtitle">vanga999/ronin · updated daily</text>
  <text x="928" y="40" text-anchor="end" class="latest">1 star</text>
  <line x1="74" y1="74.0" x2="928" y2="74.0" class="grid" />
    <text x="60" y="78.0" text-anchor="end" class="axis">2</text>
    <line x1="74" y1="185.0" x2="928" y2="185.0" class="grid" />
    <text x="60" y="189.0" text-anchor="end" class="axis">1</text>
    <line x1="74" y1="296.0" x2="928" y2="296.0" class="grid" />
    <text x="60" y="300.0" text-anchor="end" class="axis">0</text>
  <polyline points="74.0,185.0 101.5,185.0 129.1,185.0 156.6,185.0 184.2,185.0 211.7,185.0 239.3,185.0 266.8,185.0 294.4,185.0 321.9,185.0 349.5,185.0 377.0,185.0 404.6,185.0 432.1,185.0 459.7,185.0 487.2,185.0 514.8,185.0 542.3,185.0 569.9,185.0 597.4,185.0 625.0,185.0 652.5,185.0 680.1,185.0 707.6,185.0 735.2,185.0 762.7,185.0 790.3,185.0 817.8,185.0 845.4,185.0 872.9,185.0 900.5,185.0 928.0,185.0" class="line" />
  <circle cx="74.0" cy="185.0" r="4" class="point">
      <title>2026-08-16 · 1 star</title>
    </circle>
    <circle cx="101.5" cy="185.0" r="4" class="point">
      <title>2026-08-17 · 1 star</title>
    </circle>
    <circle cx="129.1" cy="185.0" r="4" class="point">
      <title>2026-08-18 · 1 star</title>
    </circle>
    <circle cx="156.6" cy="185.0" r="4" class="point">
      <title>2026-08-19 · 1 star</title>
    </circle>
    <circle cx="184.2" cy="185.0" r="4" class="point">
      <title>2026-08-20 · 1 star</title>
    </circle>
    <circle cx="211.7" cy="185.0" r="4" class="point">
      <title>2026-08-21 · 1 star</title>
    </circle>
    <circle cx="239.3" cy="185.0" r="4" class="point">
      <title>2026-08-22 · 1 star</title>
    </circle>
    <circle cx="266.8" cy="185.0" r="4" class="point">
      <title>2026-08-23 · 1 star</title>
    </circle>
    <circle cx="294.4" cy="185.0" r="4" class="point">
      <title>2026-08-24 · 1 star</title>
    </circle>
    <circle cx="321.9" cy="185.0" r="4" class="point">
      <title>2026-08-25 · 1 star</title>
    </circle>
    <circle cx="349.5" cy="185.0" r="4" class="point">
      <title>2026-08-26 · 1 star</title>
    </circle>
    <circle cx="377.0" cy="185.0" r="4" class="point">
      <title>2026-08-27 · 1 star</title>
    </circle>
    <circle cx="404.6" cy="185.0" r="4" class="point">
      <title>2026-08-28 · 1 star</title>
    </circle>
    <circle cx="432.1" cy="185.0" r="4" class="point">
      <title>2026-08-29 · 1 star</title>
    </circle>
    <circle cx="459.7" cy="185.0" r="4" class="point">
      <title>2026-08-30 · 1 star</title>
    </circle>
    <circle cx="487.2" cy="185.0" r="4" class="point">
      <title>2026-08-31 · 1 star</title>
    </circle>
    <circle cx="514.8" cy="185.0" r="4" class="point">
      <title>2026-09-01 · 1 star</title>
    </circle>
    <circle cx="542.3" cy="185.0" r="4" class="point">
      <title>2026-09-02 · 1 star</title>
    </circle>
    <circle cx="569.9" cy="185.0" r="4" class="point">
      <title>2026-09-03 · 1 star</title>
    </circle>
    <circle cx="597.4" cy="185.0" r="4" class="point">
      <title>2026-09-04 · 1 star</title>
    </circle>
    <circle cx="625.0" cy="185.0" r="4" class="point">
      <title>2026-09-05 · 1 star</title>
    </circle>
    <circle cx="652.5" cy="185.0" r="4" class="point">
      <title>2026-09-06 · 1 star</title>
    </circle>
    <circle cx="680.1" cy="185.0" r="4" class="point">
      <title>2026-09-07 · 1 star</title>
    </circle>
    <circle cx="707.6" cy="185.0" r="4" class="point">
      <title>2026-09-08 · 1 star</title>
    </circle>
    <circle cx="735.2" cy="185.0" r="4" class="point">
      <title>2026-09-09 · 1 star</title>
    </circle>
    <circle cx="762.7" cy="185.0" r="4" class="point">
      <title>2026-09-10 · 1 star</title>
    </circle>
    <circle cx="790.3" cy="185.0" r="4" class="point">
      <title>2026-09-11 · 1 star</title>
    </circle>
    <circle cx="817.8" cy="185.0" r="4" class="point">
      <title>2026-09-12 · 1 star</title>
    </circle>
    <circle cx="845.4" cy="185.0" r="4" class="point">
      <title>2026-09-13 · 1 star</title>
    </circle>
    <circle cx="872.9" cy="185.0" r="4" class="point">
      <title>2026-09-14 · 1 star</title>
    </circle>
    <circle cx="900.5" cy="185.0" r="4" class="point">
      <title>2026-09-15 · 1 star</title>
    </circle>
    <circle cx="928.0" cy="185.0" r="4" class="point">
      <title>2026-09-16 · 1 star</title>
    </circle>
  <text x="74" y="338" class="date">2026-08-16</text>
  <text x="928" y="338" text-anchor="end" class="date">2026-09-16</text>
</svg>
