<?xml version="1.0" encoding="UTF-8"?>
<svg xmlns="http://www.w3.org/2000/svg" viewBox="0 0 960 360" role="img" aria-labelledby="title description">
  <title id="title">GitHub Star History for vanga999/ronin</title>
  <desc id="description">48 daily data points; latest total is 1 star.</desc>
  <style>
    .background { fill: #fbfaf5; }
    .title { fill: #16261f; font: 600 21px -apple-system, BlinkMacSystemFont, "Segoe UI", sans-serif; }
    .subtitle { fill: #65736c; font: 12px -apple-system, BlinkMacSystemFont, "Segoe UI", sans-serif; }
    .axis { fill: #65736c; font: 11px ui-monospace, SFMono-Regular, Menlo, monospace; }
    .grid { stroke: #dce2dc; stroke-width: 1; stroke-dasharray: 4 5; }
    .line { fill: none; stroke: #f35d34; stroke-width: 3; stroke-linecap: round; stroke-linejoin: round; }
    .point { fill: #f35d34; stroke: #fbfaf5; stroke-width: 2; }
    .date { fill: #65736c; font: 11px ui-monospace, SFMono-Regular, Menlo, monospace; }
    .latest { fill: #176f51; font: 700 18px ui-monospace, SFMono-Regular, Menlo, monospace; }
  </style>
  <rect width="960" height="360" rx="8" class="background" />
  <text x="74" y="34" class="title">GitHub Star History</text>
  <text x="74" y="53" class="subtitle">vanga999/ronin · updated daily</text>
  <text x="928" y="40" text-anchor="end" class="latest">1 star</text>
  <line x1="74" y1="74.0" x2="928" y2="74.0" class="grid" />
    <text x="60" y="78.0" text-anchor="end" class="axis">2</text>
    <line x1="74" y1="185.0" x2="928" y2="185.0" class="grid" />
    <text x="60" y="189.0" text-anchor="end" class="axis">1</text>
    <line x1="74" y1="296.0" x2="928" y2="296.0" class="grid" />
    <text x="60" y="300.0" text-anchor="end" class="axis">0</text>
  <polyline points="74.0,185.0 92.2,185.0 110.3,185.0 128.5,185.0 146.7,185.0 164.9,185.0 183.0,185.0 201.2,185.0 219.4,185.0 237.5,185.0 255.7,185.0 273.9,185.0 292.0,185.0 310.2,185.0 328.4,185.0 346.6,185.0 364.7,185.0 382.9,185.0 401.1,185.0 419.2,185.0 437.4,185.0 455.6,185.0 473.7,185.0 491.9,185.0 510.1,185.0 528.3,185.0 546.4,185.0 564.6,185.0 582.8,185.0 600.9,185.0 619.1,185.0 637.3,185.0 655.4,185.0 673.6,185.0 691.8,185.0 710.0,185.0 728.1,185.0 746.3,185.0 764.5,185.0 782.6,185.0 800.8,185.0 819.0,185.0 837.1,185.0 855.3,185.0 873.5,185.0 891.7,185.0 909.8,185.0 928.0,185.0" class="line" />
  <circle cx="74.0" cy="185.0" r="2.5" class="point">
      <title>2026-08-16 · 1 star</title>
    </circle>
    <circle cx="92.2" cy="185.0" r="2.5" class="point">
      <title>2026-08-17 · 1 star</title>
    </circle>
    <circle cx="110.3" cy="185.0" r="2.5" class="point">
      <title>2026-08-18 · 1 star</title>
    </circle>
    <circle cx="128.5" cy="185.0" r="2.5" class="point">
      <title>2026-08-19 · 1 star</title>
    </circle>
    <circle cx="146.7" cy="185.0" r="2.5" class="point">
      <title>2026-08-20 · 1 star</title>
    </circle>
    <circle cx="164.9" cy="185.0" r="2.5" class="point">
      <title>2026-08-21 · 1 star</title>
    </circle>
    <circle cx="183.0" cy="185.0" r="2.5" class="point">
      <title>2026-08-22 · 1 star</title>
    </circle>
    <circle cx="201.2" cy="185.0" r="2.5" class="point">
      <title>2026-08-23 · 1 star</title>
    </circle>
    <circle cx="219.4" cy="185.0" r="2.5" class="point">
      <title>2026-08-24 · 1 star</title>
    </circle>
    <circle cx="237.5" cy="185.0" r="2.5" class="point">
      <title>2026-08-25 · 1 star</title>
    </circle>
    <circle cx="255.7" cy="185.0" r="2.5" class="point">
      <title>2026-08-26 · 1 star</title>
    </circle>
    <circle cx="273.9" cy="185.0" r="2.5" class="point">
      <title>2026-08-27 · 1 star</title>
    </circle>
    <circle cx="292.0" cy="185.0" r="2.5" class="point">
      <title>2026-08-28 · 1 star</title>
    </circle>
    <circle cx="310.2" cy="185.0" r="2.5" class="point">
      <title>2026-08-29 · 1 star</title>
    </circle>
    <circle cx="328.4" cy="185.0" r="2.5" class="point">
      <title>2026-08-30 · 1 star</title>
    </circle>
    <circle cx="346.6" cy="185.0" r="2.5" class="point">
      <title>2026-08-31 · 1 star</title>
    </circle>
    <circle cx="364.7" cy="185.0" r="2.5" class="point">
      <title>2026-09-01 · 1 star</title>
    </circle>
    <circle cx="382.9" cy="185.0" r="2.5" class="point">
      <title>2026-09-02 · 1 star</title>
    </circle>
    <circle cx="401.1" cy="185.0" r="2.5" class="point">
      <title>2026-09-03 · 1 star</title>
    </circle>
    <circle cx="419.2" cy="185.0" r="2.5" class="point">
      <title>2026-09-04 · 1 star</title>
    </circle>
    <circle cx="437.4" cy="185.0" r="2.5" class="point">
      <title>2026-09-05 · 1 star</title>
    </circle>
    <circle cx="455.6" cy="185.0" r="2.5" class="point">
      <title>2026-09-06 · 1 star</title>
    </circle>
    <circle cx="473.7" cy="185.0" r="2.5" class="point">
      <title>2026-09-07 · 1 star</title>
    </circle>
    <circle cx="491.9" cy="185.0" r="2.5" class="point">
      <title>2026-09-08 · 1 star</title>
    </circle>
    <circle cx="510.1" cy="185.0" r="2.5" class="point">
      <title>2026-09-09 · 1 star</title>
    </circle>
    <circle cx="528.3" cy="185.0" r="2.5" class="point">
      <title>2026-09-10 · 1 star</title>
    </circle>
    <circle cx="546.4" cy="185.0" r="2.5" class="point">
      <title>2026-09-11 · 1 star</title>
    </circle>
    <circle cx="564.6" cy="185.0" r="2.5" class="point">
      <title>2026-09-12 · 1 star</title>
    </circle>
    <circle cx="582.8" cy="185.0" r="2.5" class="point">
      <title>2026-09-13 · 1 star</title>
    </circle>
    <circle cx="600.9" cy="185.0" r="2.5" class="point">
      <title>2026-09-14 · 1 star</title>
    </circle>
    <circle cx="619.1" cy="185.0" r="2.5" class="point">
      <title>2026-09-15 · 1 star</title>
    </circle>
    <circle cx="637.3" cy="185.0" r="2.5" class="point">
      <title>2026-09-16 · 1 star</title>
    </circle>
    <circle cx="655.4" cy="185.0" r="2.5" class="point">
      <title>2026-09-17 · 1 star</title>
    </circle>
    <circle cx="673.6" cy="185.0" r="2.5" class="point">
      <title>2026-09-18 · 1 star</title>
    </circle>
    <circle cx="691.8" cy="185.0" r="2.5" class="point">
      <title>2026-09-19 · 1 star</title>
    </circle>
    <circle cx="710.0" cy="185.0" r="2.5" class="point">
      <title>2026-09-20 · 1 star</title>
    </circle>
    <circle cx="728.1" cy="185.0" r="2.5" class="point">
      <title>2026-09-21 · 1 star</title>
    </circle>
    <circle cx="746.3" cy="185.0" r="2.5" class="point">
      <title>2026-09-22 · 1 star</title>
    </circle>
    <circle cx="764.5" cy="185.0" r="2.5" class="point">
      <title>2026-09-23 · 1 star</title>
    </circle>
    <circle cx="782.6" cy="185.0" r="2.5" class="point">
      <title>2026-09-24 · 1 star</title>
    </circle>
    <circle cx="800.8" cy="185.0" r="2.5" class="point">
      <title>2026-09-25 · 1 star</title>
    </circle>
    <circle cx="819.0" cy="185.0" r="2.5" class="point">
      <title>2026-09-26 · 1 star</title>
    </circle>
    <circle cx="837.1" cy="185.0" r="2.5" class="point">
      <title>2026-09-27 · 1 star</title>
    </circle>
    <circle cx="855.3" cy="185.0" r="2.5" class="point">
      <title>2026-09-28 · 1 star</title>
    </circle>
    <circle cx="873.5" cy="185.0" r="2.5" class="point">
      <title>2026-09-29 · 1 star</title>
    </circle>
    <circle cx="891.7" cy="185.0" r="2.5" class="point">
      <title>2026-09-30 · 1 star</title>
    </circle>
    <circle cx="909.8" cy="185.0" r="2.5" class="point">
      <title>2026-10-01 · 1 star</title>
    </circle>
    <circle cx="928.0" cy="185.0" r="2.5" class="point">
      <title>2026-10-02 · 1 star</title>
    </circle>
  <text x="74" y="338" class="date">2026-08-16</text>
  <text x="928" y="338" text-anchor="end" class="date">2026-10-02</text>
</svg>
